<?xml version="1.0" encoding="utf-8"?>
<!-- Generator: Adobe Illustrator 27.0.0, SVG Export Plug-In . SVG Version: 6.00 Build 0)  -->
<svg version="1.1" id="Layer_1" xmlns="http://www.w3.org/2000/svg" xmlns:xlink="http://www.w3.org/1999/xlink" x="0px" y="0px"
	 viewBox="0 0 258.6 96.1" style="enable-background:new 0 0 258.6 96.1;" xml:space="preserve">
<style type="text/css">
	.st0{fill:#FFFFFF;}
</style>
<g>
	<g>
		<path class="st0" d="M117,45.1h-6.6L101,28.5h-0.9c-5.7,0-5.7,4.4-5.7,5c0-0.6,0-10,6.4-10h2.2c3.9-0.1,7.1-2.9,7.1-7.2
			c0-4.3-3.2-7.2-7.2-7.2l-8.5,0v36.1h-6.2v-41H103c8.2,0,13.4,5.5,13.4,12.2c0,5.5-3.4,10.1-9.1,11.7L117,45.1z"/>
		<path class="st0" d="M153.1,45.1h-6.4l-2.8-11.3H130l-2.7,11.3h-6.4l10.6-41h10.6L153.1,45.1z M142.6,28.9l-5.8-23.1l-5.6,23.1
			H142.6z"/>
		<path class="st0" d="M176.2,40.2l1.1,0v5h-20.7l0-5H174c-3.6-0.1-10.2-0.8-10.2-4.7V13.4c0-4.3-6.1-4.3-6.1-4.3l-1.1,0v-5h20.7
			l0,5h-17.4c3.6,0.1,10.1,0.8,10.1,4.7v22.1C170,40.2,176.2,40.2,176.2,40.2z"/>
		<path class="st0" d="M210.7,4.1v41h-11.5l-9.1-38.3v38.3h-6.2v-41h11.2l9.4,39.1V4.1H210.7z"/>
		<path class="st0" d="M249.9,4.1L236,29.8v15.3h-6V29.9L216,4.1h7.2l9.7,19.4l9.7-19.4H249.9z"/>
	</g>
	<g>
		<path class="st0" d="M117.1,74c0,12-6.3,20.4-15.6,20.5H88.2v-41h13.2C110.9,53.5,117.1,62,117.1,74z M110.9,74
			c0-8.8-3.6-15.5-9.6-15.5h-6.8v31.1h7.1C107.3,89.5,110.9,82.7,110.9,74z"/>
		<path class="st0" d="M152.8,94.5h-6.4l-2.8-11.3h-13.8l-2.7,11.3h-6.4l10.6-41h10.6L152.8,94.5z M142.4,78.2l-5.8-23.1L131,78.2
			H142.4z"/>
		<path class="st0" d="M184.2,53.4l-13.9,25.7v15.3h-6V79.2l-13.9-25.8h7.2l9.7,19.4l9.7-19.4H184.2z"/>
		<path class="st0" d="M217.3,84c0,6.1-6.3,11.8-15.6,11.6c-10.1-0.2-15.6-7.7-15.6-14.4l6.3,0c0,4.4,3.6,9.2,9.2,9.4
			c5.2,0.2,9.5-2.4,9.5-6.7c0-3.8-2.5-6.2-6.5-7.1l-6-1.4c-7.8-1.9-11.1-6.1-11.1-11.9c0-6.3,5.8-11.1,14.3-11.1
			c10.1,0,14.3,6.6,14.3,13.2h-6.2c0-3.3-2.5-8.2-8.1-8.2c-5.1,0-8.1,2.4-8.1,6.1c0,3.4,2.1,5.6,5.8,6.5c0.2,0,6,1.4,6,1.4
			C212.4,73,217.3,76.4,217.3,84z"/>
	</g>
	<g>
		<path class="st0" d="M38.7,8.6c15.5,0,25.2,10.4,25.2,23c0,10.3-6.5,19.1-17.2,22l18.4,32.3H52.7L34.9,54.6h-1.6
			c-10.7,0-10.7,8.2-10.7,9.4c0-1.2,0.1-18.8,12-18.8h4.2c7.4-0.1,13.4-5.5,13.4-13.6c0-8.2-6-13.6-13.5-13.6l-16.1,0v46v21.9H10.9
			V8.6H38.7 M22.6,64L22.6,64L22.6,64 M22.6,64C22.6,64,22.6,64,22.6,64C22.6,64,22.6,64,22.6,64 M22.6,64C22.6,64,22.6,64,22.6,64
			C22.6,64,22.6,64,22.6,64 M22.6,64C22.6,64,22.6,64,22.6,64C22.6,64,22.6,64,22.6,64 M22.6,64C22.6,64,22.6,64,22.6,64
			C22.6,64,22.6,64,22.6,64 M22.6,64C22.6,64,22.6,64,22.6,64C22.6,64,22.6,64,22.6,64 M38.7,1H10.9H3.3v7.6v77.3v7.6h7.6h11.7h7.6
			v-7.6V64v0v0v0v0v0c0-0.6,0.2-1,0.3-1.2c0-0.1,0.2-0.2,0.3-0.2l15.4,27.1l2.2,3.8h4.4h12.4h13l-6.4-11.3L57.5,57.1
			c3.1-1.9,5.7-4.3,7.9-7.1c4-5.2,6.1-11.6,6.1-18.4c0-8.4-3.3-16.1-9.2-21.7C56.3,4.2,47.9,1,38.7,1L38.7,1z M30.2,25.6l8.5,0
			c2.8,0,6,1.6,6,6.1c0,4.4-3.2,6-5.9,6.1h-4.1c-1.5,0-3,0.2-4.4,0.5V25.6L30.2,25.6z"/>
	</g>
	<path class="st0" d="M79.8,93.5"/>
</g>
</svg>
